# xmcd
#
# Track frame offsets:
#	150
#	21348
#	41656
#	83147
#	107553
#	120670
#	134535
#	148091
#	167051
#	182560
#	208403
#	226524
#	241446
#	255627
#	272301
#	303745
#
# Disc length: 4064 seconds
#
# Revision: 1
# Processed by: cddbd v1.5.2PL0 Copyright (c) Steve Scherf et al.
# Submitted via: audiograbber 1.83.01
#
DISCID=df0fde10
DTITLE=Lynyrd Skynyrd - Country Artist Series
DYEAR=1900
DGENRE=
TTITLE0=Gimme Three Steps
TTITLE1=Sweet Home Alabama
TTITLE2=Free Bird
TTITLE3=Call Me The Breeze
TTITLE4=I Ain't The One
TTITLE5=Gimme Back My Bullets
TTITLE6=Poison Whiskey
TTITLE7=Whiskey Rock-A-Roller
TTITLE8=Don't Ask Me No Questions
TTITLE9=Simple Man
TTITLE10=The Ballad OF Curtis Loew
TTITLE11=The Needle And The Spoon
TTITLE12=I Know A Little
TTITLE13=Swamp Music
TTITLE14=Tuesday's Gone
TTITLE15=DATA
EXTD=
EXTT0=
EXTT1=
EXTT2=
EXTT3=
EXTT4=
EXTT5=
EXTT6=
EXTT7=
EXTT8=
EXTT9=
EXTT10=
EXTT11=
EXTT12=
EXTT13=
EXTT14=
EXTT15=
PLAYORDER=
